<svg xmlns="http://www.w3.org/2000/svg" id="Ebene_1" data-name="Ebene 1" viewBox="0 0 258.5 100"><defs><style>      .cls-1 {        fill: #95c122;      }      .cls-1, .cls-2, .cls-3, .cls-4, .cls-5, .cls-6, .cls-7 {        stroke-width: 0px;      }      .cls-2 {        fill: #16341f;      }      .cls-3 {        fill: #306240;      }      .cls-4 {        fill: #059444;      }      .cls-5 {        fill: #79a82e;      }      .cls-6 {        fill: #010202;      }      .cls-7 {        fill: #2e8d37;      }    </style></defs><polygon class="cls-6" points="63.8 49.1 63.8 57 73.9 57 73.9 61.7 63.8 61.7 63.8 69.7 76.9 69.7 76.9 74.6 57.5 74.6 57.5 44.2 76.9 44.2 76.9 49.1 63.8 49.1"></polygon><path class="cls-6" d="M115.1,44.2v30.4h-5.6v-19.9c0-.4,0-.9,0-1.3l-8.7,16.5c-.5.9-1.2,1.3-2.2,1.3h-.9c-.5,0-.9,0-1.3-.3s-.7-.6-.9-1l-8.7-16.6c0,.5,0,1,0,1.4v19.9h-5.6v-30.4h5.5c.2,0,.4,0,.6,0,.2,0,.3.2.4.3.2.2.2.3.4.6l8.5,16.2c.2.5.5,1,.7,1.5.2.5.4,1.1.7,1.6.2-.6.4-1.1.7-1.7.2-.5.5-1,.7-1.5l8.4-16.2c.2-.2.2-.4.4-.6s.2-.2.4-.3c.2,0,.3,0,.6,0h5.7Z"></path><path class="cls-6" d="M131.6,59.4c2,0,3.4-.5,4.3-1.4s1.4-2.2,1.4-3.9,0-1.4-.3-2.1c-.2-.6-.6-1.2-1.1-1.6s-1.1-.7-1.7-1c-.7-.2-1.6-.3-2.5-.3h-4v10.3h4,0ZM131.6,44.2c2.1,0,3.9.2,5.4.7,1.5.5,2.7,1.2,3.7,2.1,1,.8,1.7,1.9,2.2,3.1s.7,2.5.7,3.9-.2,2.8-.7,4.1c-.5,1.2-1.2,2.3-2.2,3.2s-2.2,1.6-3.7,2.1-3.2.7-5.3.7h-4v10.5h-6.2v-30.4h10.3Z"></path><polygon class="cls-6" points="166.5 69.5 166.5 74.6 148.5 74.6 148.5 44.2 154.8 44.2 154.8 69.5 166.5 69.5"></polygon><path class="cls-6" d="M194.2,59.5c0-1.6-.2-3-.7-4.2s-1-2.3-1.8-3.2c-.7-.9-1.7-1.6-2.8-2-1.1-.5-2.4-.7-3.8-.7s-2.7.2-3.8.7c-1.2.5-2.1,1.2-2.9,2-.7.9-1.4,2-1.8,3.2s-.7,2.7-.7,4.2.2,3.1.7,4.3,1,2.3,1.8,3.2c.7.9,1.7,1.6,2.9,2,1.2.5,2.4.7,3.8.7s2.7-.2,3.8-.7c1.1-.5,2.1-1.2,2.8-2,.7-.9,1.4-1.9,1.8-3.2.4-1.2.7-2.7.7-4.3M200.6,59.5c0,2.2-.4,4.2-1.1,6.2-.7,1.9-1.8,3.6-3.2,4.9-1.3,1.4-3,2.5-4.9,3.2-1.9.7-4,1.2-6.4,1.2s-4.5-.4-6.3-1.2c-1.9-.7-3.6-1.9-4.9-3.2-1.3-1.4-2.4-3-3.2-4.9s-1.1-4-1.1-6.2.3-4.2,1.1-6.2c.7-1.9,1.8-3.5,3.2-4.9s3-2.5,4.9-3.2c1.9-.7,4-1.2,6.3-1.2s4.5.4,6.4,1.2,3.6,1.9,4.9,3.2c1.3,1.4,2.4,3,3.2,4.9.7,1.9,1.1,3.9,1.1,6.2"></path><path class="cls-6" d="M217.9,62.9v11.7h-6.2v-11.7l-11.1-18.7h5.5c.6,0,1,.2,1.3.4.3.2.6.6.7,1l5,9.6c.3.7.7,1.2.9,1.8.2.6.5,1.1.7,1.7.2-.6.4-1.1.7-1.7s.6-1.2.8-1.8l4.9-9.6c.2-.3.4-.7.7-.9.3-.3.7-.4,1.3-.4h5.6l-11.1,18.7h0Z"></path><path class="cls-6" d="M245.4,63.1l-3.2-9.3c-.2-.5-.4-1.1-.6-1.7-.2-.7-.4-1.3-.6-2.2-.2.7-.4,1.5-.6,2.2-.2.7-.4,1.2-.6,1.7l-3.2,9.2h9-.2ZM255.9,74.6h-4.9c-.6,0-1-.2-1.3-.4s-.6-.6-.7-1l-2.1-5.8h-12.1l-2.1,5.8c-.2.3-.4.7-.7.9-.3.2-.7.4-1.3.4h-4.9l11.9-30.4h6.4l11.8,30.4h0Z"></path><path class="cls-3" d="M63,85.4h3.6c.7,0,1.2,0,1.6.2.4.2.7.4,1,.7.2.2.4.6.5.9s.2.7.2,1,0,.7-.2,1c0,.3-.2.7-.5.9s-.6.5-1,.7c-.4.2-.9.2-1.6.2h-2.2v4.4h-1.3v-10.1h0ZM64.4,89.9h2.7c.2,0,.5,0,.7-.2.2,0,.3-.2.5-.5,0-.2.2-.5.2-.8s0-.6-.2-.8c0-.2-.2-.4-.5-.5-.2,0-.4-.2-.7-.2h-2.7v3.2h0ZM71.9,89.9h-1.4v-1.1h1.4v-1.5c0-.9.2-1.6.5-2s.9-.7,1.7-.7.3,0,.4,0c.2,0,.3,0,.5,0l-.2,1.2c0,0-.2,0-.3,0h-.3c-.2,0-.4,0-.6,0-.2,0-.2.2-.3.3,0,.2-.2.3-.2.5v2.2h1.5v1.1h-1.5v5.7h-1.2v-5.8ZM75.9,84.8h1.2v10.7h-1.2v-10.7ZM80.4,92.7c0,.3,0,.6.2.8s.3.4.5.6c.2.2.4.3.7.4.2,0,.6.2.8.2s.7,0,1.1-.2c.3-.2.6-.4.8-.7l1,.7c-.7.9-1.7,1.4-3,1.4s-1,0-1.4-.2c-.4-.2-.8-.4-1.1-.7-.3-.3-.5-.7-.7-1.2-.2-.4-.2-.9-.2-1.4s0-1,.2-1.4c.2-.4.4-.8.7-1.2s.7-.6,1.1-.7c.4-.2.9-.2,1.4-.2s1.1,0,1.5.3.7.5,1,.8c.2.3.5.7.6,1.2s.2.8.2,1.2v.4h-5.5ZM84.4,91.6c0-.2,0-.6-.2-.7,0-.2-.2-.4-.3-.6-.2-.2-.3-.3-.6-.4-.2,0-.5-.2-.8-.2s-.6,0-.8.2c-.2,0-.5.2-.7.5-.2.2-.3.4-.4.7s-.2.5-.2.7h4.1,0ZM94.3,95.5c0,.5,0,1-.2,1.4-.2.4-.4.7-.7,1.1s-.7.6-1.2.7-1,.2-1.5.2-1.2,0-1.7-.2c-.5-.2-1.1-.5-1.5-.9l.8-1.1c.3.3.7.7,1.1.8s.8.2,1.3.2.8,0,1.2-.2.6-.3.7-.5c.2-.2.3-.5.4-.7,0-.2,0-.6,0-.8v-1h0c-.2.4-.6.7-1,.9s-.8.3-1.3.3-.9,0-1.4-.2c-.4-.2-.7-.4-1.1-.7s-.6-.7-.7-1.1c-.2-.4-.2-.9-.2-1.4s0-1,.2-1.4c.2-.4.4-.8.7-1.2.3-.3.7-.6,1.1-.7.4-.2.9-.2,1.4-.2s.9,0,1.3.3c.4.2.7.5,1,.8h0v-1h1.2v6.7h0ZM90.8,89.8c-.3,0-.7,0-.9.2-.2,0-.5.2-.7.5-.2.2-.3.4-.4.7,0,.2-.2.6-.2.9,0,.7.2,1.2.6,1.7s.9.6,1.7.6,1.2-.2,1.7-.6.6-1,.6-1.7,0-.7-.2-.9c0-.2-.2-.5-.4-.7-.2-.2-.4-.3-.7-.5-.2,0-.6-.2-.9-.2h-.2ZM97.3,92.7c0,.3,0,.6.2.8s.3.4.5.6c.2.2.4.3.7.4.2,0,.6.2.8.2s.7,0,1.1-.2c.3-.2.6-.4.8-.7l1,.7c-.7.9-1.7,1.4-3,1.4s-1,0-1.4-.2c-.4-.2-.8-.4-1.1-.7-.3-.3-.5-.7-.7-1.2-.2-.4-.2-.9-.2-1.4s0-1,.2-1.4c.2-.4.4-.8.7-1.2s.7-.6,1.1-.7c.4-.2.9-.2,1.4-.2s1.1,0,1.5.3.7.5,1,.8c.2.3.5.7.6,1.2s.2.8.2,1.2v.4h-5.5ZM101.3,91.6c0-.2,0-.6-.2-.7,0-.2-.2-.4-.3-.6-.2-.2-.3-.3-.6-.4-.2,0-.5-.2-.8-.2s-.6,0-.8.2c-.2,0-.5.2-.7.5-.2.2-.3.4-.4.7s-.2.5-.2.7h4.1,0Z"></path><path class="cls-3" d="M110.4,91.3c0,.5-.4.9-.9.9s-.9-.4-.9-.9.4-.9.9-.9.9.4.9.9Z"></path><g><path class="cls-4" d="M116.9,85.4h2l3.2,7.7h0l3.2-7.7h2v10.1h-1.3v-8.3h0l-3.4,8.3h-.9l-3.4-8.3h0v8.3h-1.3v-10.1h0Z"></path><path class="cls-4" d="M136.1,92.3v.3h-5.4c0,1.2,1.1,2,2.2,2s1.3-.4,1.8-1l1,.7c-.7.9-1.7,1.4-3,1.4-2,0-3.5-1.4-3.5-3.6s1.4-3.6,3.5-3.6,3.3,1.3,3.3,3.7h0ZM132.8,89.7c-1.3,0-2.1,1.2-2.1,2h4.1c0-1.2-.7-2-1.9-2h0Z"></path><path class="cls-4" d="M137.5,92.2c0-2.1,1.4-3.6,3.4-3.6s1.8.4,2.3,1.2h0v-5h1.2v10.7h-1.2v-1h0c-.5.7-1.4,1.2-2.3,1.2-2,0-3.4-1.4-3.4-3.6h0ZM141.1,94.5c1.3,0,2.2-.9,2.2-2.3s-.9-2.3-2.2-2.3-2.2.9-2.2,2.3.9,2.3,2.2,2.3Z"></path><path class="cls-4" d="M148.4,86.3c0,.5-.4.9-.9.9s-.9-.4-.9-.9.4-.9.9-.9.9.4.9.9ZM148,95.5h-1.2v-6.7h1.2v6.7Z"></path><path class="cls-4" d="M155.2,89.9l-3.8,4.5h4.1v1.1h-5.6v-1.2l3.8-4.5h-3.7v-1.1h5.2v1.2Z"></path><path class="cls-4" d="M158.7,86.3c0,.5-.4.9-.9.9s-.9-.4-.9-.9.4-.9.9-.9.9.4.9.9ZM158.4,95.5h-1.2v-6.7h1.2v6.7Z"></path><path class="cls-4" d="M161.9,88.8v1h0c.3-.7,1.2-1.2,2.2-1.2,1.5,0,2.4,1,2.4,2.5v4.4h-1.2v-4c0-1-.6-1.7-1.5-1.7s-1.9.8-1.9,2.2v3.5h-1.2v-6.7h1.2Z"></path></g><path class="cls-3" d="M174.7,91.3c0,.5-.4.9-.9.9s-.9-.4-.9-.9.4-.9.9-.9.9.4.9.9Z"></path><g><path class="cls-5" d="M181.3,95.5v-10.1h3.6c1.9,0,3.2,1,3.2,2.8s-1.2,2.8-3.2,2.8h-2.2v4.4s-1.3,0-1.3,0ZM182.7,89.9h1.8c1.4,0,2.1-.5,2.1-1.6s-.7-1.7-2.1-1.7h-1.8v3.2Z"></path><path class="cls-5" d="M192.9,91.3h.9v-.2c0-.9-.7-1.5-1.6-1.5s-1.2.2-1.9.7l-.7-.8c.7-.7,1.7-1,2.7-1,2,0,2.8,1.2,2.8,2.2v4.7h-1.2v-1h0c-.6.8-1.3,1.2-2.3,1.2s-2.3-.7-2.3-2,1.1-2.3,3.7-2.3h0ZM189.9,86.2c0-.4.4-.8.9-.8s.9.3.9.8-.3.9-.9.9-.9-.4-.9-.9ZM191.9,94.7c1.2,0,1.9-.7,1.9-2v-.3h-.7c-2.1,0-2.7.7-2.7,1.3s.5,1.1,1.4,1.1h0ZM192.8,86.2c0-.4.4-.8.9-.8s.9.3.9.8-.3.9-.9.9-.9-.4-.9-.9Z"></path><path class="cls-5" d="M196.7,92.2c0-2.1,1.4-3.6,3.4-3.6s1.8.4,2.3,1.2h0v-5h1.2v10.7h-1.2v-1h0c-.5.7-1.4,1.2-2.3,1.2-2,0-3.4-1.4-3.4-3.6h0ZM200.3,94.5c1.3,0,2.2-.9,2.2-2.3s-.9-2.3-2.2-2.3-2.2.9-2.2,2.3.9,2.3,2.2,2.3Z"></path><path class="cls-5" d="M205.6,93.7c0-1.3,1.1-2.3,3.7-2.3h1v-.2c0-.9-.7-1.5-1.7-1.5s-1.2.2-1.9.7l-.7-.8c.7-.7,1.7-1,2.7-1,2,0,2.8,1.2,2.8,2.2v4.7h-1.2v-1h0c-.6.8-1.3,1.2-2.3,1.2s-2.3-.7-2.3-2h0ZM206.9,93.6c0,.7.5,1.1,1.4,1.1s1.9-.7,1.9-2v-.3h-.7c-2.1,0-2.7.7-2.7,1.3h0Z"></path><path class="cls-5" d="M216.6,88.6c.9,0,1.8.4,2.3,1.2h0v-1h1.2v6.7c0,1.8-1.3,3.4-3.7,3.4s-2.3-.3-3.3-1.2l.8-1.1c.7.7,1.4,1.1,2.4,1.1,1.6,0,2.4-.9,2.4-2.3v-1h0c-.4.7-1.3,1.2-2.3,1.2-1.9,0-3.4-1.4-3.4-3.4s1.4-3.6,3.4-3.6h0ZM214.5,92.2c0,1.3.8,2.2,2.2,2.2s2.2-.9,2.2-2.2-.9-2.3-2.2-2.3-2.2,1-2.2,2.3Z"></path><path class="cls-5" d="M229.2,92.2c0,2-1.6,3.6-3.6,3.6s-3.6-1.5-3.6-3.6,1.6-3.6,3.6-3.6,3.6,1.5,3.6,3.6ZM225.6,94.5c1.3,0,2.2-.9,2.2-2.3s-.9-2.3-2.2-2.3-2.2,1-2.2,2.3.9,2.3,2.2,2.3Z"></path><path class="cls-5" d="M234.1,88.6c.9,0,1.8.4,2.3,1.2h0v-1h1.2v6.7c0,1.8-1.3,3.4-3.7,3.4s-2.3-.3-3.3-1.2l.8-1.1c.7.7,1.4,1.1,2.4,1.1,1.6,0,2.4-.9,2.4-2.3v-1h0c-.4.7-1.3,1.2-2.3,1.2-1.9,0-3.4-1.4-3.4-3.4s1.4-3.6,3.4-3.6h0ZM232,92.2c0,1.3.8,2.2,2.2,2.2s2.2-.9,2.2-2.2-.9-2.3-2.2-2.3-2.2,1-2.2,2.3Z"></path><path class="cls-5" d="M241.5,86.3c0,.5-.4.9-.9.9s-.9-.4-.9-.9.4-.9.9-.9.9.4.9.9ZM241.2,95.5h-1.2v-6.7h1.2v6.7Z"></path><path class="cls-5" d="M243.4,84.8h1.2v6.9l2.9-2.9h1.7l-3.2,3.1,3.4,3.7h-1.8l-3.2-3.5v3.5h-1.2v-10.7h0Z"></path></g><path class="cls-1" d="M40.9,5h0c-5,3.1-9.1,7.5-10.9,13.2-1.9,6-1.9,14.3,1.9,19.6,3,4.2,7.8,6.1,12.8,4.7,1.4-.3,2.7-1.2,2.7-1.2l1.2-.8c2.3-2,3.5-4.7,3.9-7.7.4-3.4-.7-6.5-.9-9.8-.2-3.2.4-6.6,2.2-9.2,3.7-5.8,13.3-7.4,19.6-6.2,2.2.4,5.9,2.7,5.6,2.1s-20.2-15.5-38.1-4.4"></path><path class="cls-7" d="M41.2,1.6h-.2c-.3,0-.6,0-.9,0-.7.2-1.5.3-2.2.5-1.1.2-2.1.6-3.2.9-1.2.4-2.6.9-3.7,1.5-1.4.7-2.8,1.3-4.2,2.2-.2,0-.3.2-.5.3-7.6,4.5-15.2,12.4-17.5,22.2-3.9,20.6,6.7,34,8.7,36.4,2,2.4,9.3,9.7,15.7,10.7,5.1.8,10,.4,12.6-3.9.7-1.2,1.2-3.2,1.3-4.7v.6c.2-3-.8-5.9-2.7-8.2-2.1-2.7-3.7-3.2-8.2-7-12.2-9.7-15.1-20.7-12.3-33.2.8-3.8,3.3-8.3,6.1-11.2.6-.7,1.2-1.4,2-2,.7-.6,1.4-1.2,2.2-1.7.7-.5,1.3-.9,2-1.3.3-.2.7-.4,1.1-.7.4-.2.7-.4,1.2-.6,0,0,.2,0,.3-.2.4-.2.8-.2,1.2-.4.3,0,.7-.2.9-.2,0,0,.2,0,.2,0"></path><path class="cls-2" d="M5.3,49.4c.2,1.3.5,2.6.8,3.8.3,1.3.8,2.6,1.2,3.9,1.1,2.9,2.4,5.7,4.1,8.3,2,3.2,4.4,6.2,7.1,8.9,2,2,4.2,3.8,6.7,5.4,2.3,1.5,4.7,2.8,7.3,3.9,1.4.6,2.8,1.1,4.3,1.5,3.1.9,6.2,1.3,9.2,2.3h0c1.8.6,3.7,1.3,5.4,2.2,1.5.8,2.7,2.2,2.7,4,0,3.9-5.8,3.6-8.4,3.5-3.1-.2-6.1-.8-9-1.7-3.8-1.2-7.6-2.8-11-4.9-2.6-1.6-5-3.3-7.2-5.4-.7-.6-1.2-1.2-1.8-1.7-.7-.7-1.2-1.3-1.9-2-3.2-3.5-5.7-7.5-7.8-11.8-1.2-2.7-2.2-5.2-2.9-8.1-.4-1.5-.7-2.9-.9-4.4-.2-1.5-.5-3.1-.6-4.6,0-1.2-.2-2.3-.2-3.5s.4-6.6.7-7.7c.2-.8.4-1.7.7-2.4,0-.2,0-.6.2-.7.2,0,.2,0,.2.2v.6c.2,3.4.4,6.8,1,10.2"></path></svg>